<svg width="100" height="100" version="1.1" viewBox="0 0 93.75 93.75" xmlns="http://www.w3.org/2000/svg">
	<rect x=".023437" y=".023437" width="93.703" height="93.703" rx=".9375" ry=".9375" fill="#528ff9" fill-rule="evenodd" stroke="#000" stroke-linejoin="round" stroke-width=".046875"/>
	<path d="m45.093 20.147v3.6743a23.215 23.215 0 00-21.162 21.272h-3.7848v3.5638h3.7884a23.215 23.215 0 0021.159 21.272v3.6743h3.5638v-3.6743c11.362-.83392 20.399-9.9073 21.272-21.272h3.6743v-3.5638h-3.6743c-.87316-11.365-9.9073-20.553-21.272-21.383v-3.5638zm1.8924 10.025c9.2907 0 16.707 7.4126 16.707 16.704s-7.4161 16.707-16.707 16.707c-9.2872 0-16.928-7.4197-16.928-16.707 0-9.2876 7.6408-16.707 16.928-16.707zm-.1105 4.2303a12.473 12.473 0 100 24.947 12.473 12.473 0 000-24.947z" fill="#fafafa" stroke-width=".80113"/>
</svg>
