<svg width="16" height="16" version="1.1" viewBox="0 0 15 15" xmlns="http://www.w3.org/2000/svg">
	<path d="m7.1228 1.468v0.82596a5.2185 5.2185 0 0 0-4.7571 4.7819h-0.8508v0.80113h0.8516a5.2185 5.2185 0 0 0 4.7563 4.7819v0.82596h0.80113v-0.82596c2.554-0.18746 4.5856-2.2271 4.7819-4.7819h0.82596v-0.80113h-0.82596c-0.19628-2.5548-2.2271-4.6201-4.7819-4.8068v-0.80113zm0.4254 2.2536c2.0885 0 3.7557 1.6663 3.7557 3.7549s-1.6671 3.7557-3.7557 3.7557c-2.0877 0-3.8054-1.6679-3.8054-3.7557s1.7176-3.7557 3.8054-3.7557zm-0.024835 0.95094a2.8039 2.8039 0 1 0 0 5.6079 2.8039 2.8039 0 0 0 0-5.6079z" stroke-width=".80113"/>
</svg>
