<?xml version="1.0" standalone="no"?>
<!DOCTYPE svg PUBLIC "-//W3C//DTD SVG 20010904//EN"
 "http://www.w3.org/TR/2001/REC-SVG-20010904/DTD/svg10.dtd">
<svg version="1.0" xmlns="http://www.w3.org/2000/svg"
 width="700.000000pt" height="700.000000pt" viewBox="0 0 700.000000 700.000000"
 preserveAspectRatio="xMidYMid meet">
<metadata>
Created by potrace 1.11, written by Peter Selinger 2001-2013
</metadata>
<g transform="translate(0.000000,700.000000) scale(0.100000,-0.100000)"
fill="#000000" stroke="none">
<path d="M3329 6315 c-1 0 -2 -84 -3 -187 -1 -103 -5 -190 -9 -194 -4 -4 -28
-9 -54 -11 -41 -4 -81 -10 -233 -37 -60 -10 -195 -49 -306 -86 -118 -41 -406
-174 -412 -191 -2 -5 -8 -9 -13 -9 -22 0 -226 -141 -329 -228 -57 -48 -256
-245 -300 -297 -301 -357 -517 -857 -556 -1288 -4 -43 -11 -80 -16 -83 -5 -4
-96 -6 -201 -6 l-192 0 2 -161 c1 -89 2 -173 2 -187 l1 -25 197 0 c191 0 198
-1 199 -20 5 -92 41 -293 73 -410 41 -147 51 -181 60 -200 5 -11 24 -56 41
-100 38 -96 135 -287 167 -332 13 -17 23 -35 23 -39 0 -3 21 -36 47 -73 386
-548 928 -904 1565 -1025 59 -11 181 -28 222 -30 18 -2 22 -45 21 -213 l-2
-173 36 -1 c40 -1 323 -1 332 0 3 1 6 85 7 187 0 102 2 188 5 190 5 6 31 10
105 18 76 9 118 16 197 33 39 8 88 19 110 24 43 9 230 69 280 89 143 60 215
95 320 155 507 293 871 728 1080 1290 57 152 117 424 129 580 1 17 5 35 8 40
4 7 76 10 192 10 119 0 187 3 189 10 2 5 3 89 2 185 l-1 175 -188 2 c-103 1
-189 3 -191 5 -4 3 -11 54 -20 128 -3 25 -7 56 -10 70 -3 14 -8 41 -11 60 -10
65 -63 265 -93 350 -121 347 -315 659 -568 915 -72 72 -111 109 -225 205 -66
56 -283 195 -384 247 -221 113 -458 194 -679 232 -93 16 -116 19 -180 26 -32
3 -61 8 -63 10 -2 2 -5 86 -6 187 l-1 183 -182 0 c-101 0 -184 0 -184 0z m335
-1059 c55 -4 102 -9 105 -10 3 -2 29 -7 56 -10 185 -25 499 -145 649 -249 233
-162 371 -299 511 -508 122 -182 229 -445 261 -644 3 -20 7 -46 9 -56 22 -114
23 -384 1 -524 -51 -334 -184 -629 -397 -880 -74 -88 -159 -172 -229 -225 -25
-19 -47 -37 -50 -41 -13 -17 -185 -122 -265 -162 -168 -83 -314 -132 -491
-163 -142 -25 -519 -25 -595 0 -8 3 -32 7 -54 10 -22 3 -67 13 -100 21 -33 9
-67 18 -75 20 -67 14 -296 117 -400 179 -153 92 -363 272 -450 385 -14 18 -33
42 -43 54 -71 83 -185 285 -237 417 -49 124 -95 296 -106 394 -3 33 -8 69 -10
80 -6 28 -5 294 0 326 3 14 7 50 10 80 7 68 10 81 37 189 178 712 817 1253
1555 1316 43 4 80 8 81 9 3 3 132 -2 227 -8z"/>
<path d="M3379 4816 c-2 -2 -29 -7 -59 -11 -204 -26 -443 -128 -610 -260 -190
-151 -309 -308 -413 -545 -32 -72 -65 -194 -84 -315 -15 -88 -6 -327 16 -432
48 -231 151 -437 303 -608 61 -69 161 -160 211 -194 13 -9 44 -29 67 -45 304
-202 742 -257 1106 -137 371 121 669 401 811 761 68 173 88 285 87 500 0 168
-24 298 -80 444 -107 277 -302 509 -559 665 -110 67 -302 139 -420 157 -22 3
-44 8 -49 12 -10 6 -321 13 -327 8z"/>
</g>
</svg>
